<?xml version="1.0" encoding="UTF-8"?>
<svg version="1.1" xmlns="http://www.w3.org/2000/svg" width="512" height="512">
<path d="M0 0 C5.08084721 4.50667898 7.34986259 10.04398362 8.95703125 16.5625 C8.95703125 17.8825 8.95703125 19.2025 8.95703125 20.5625 C9.53670654 20.54155273 10.11638184 20.52060547 10.71362305 20.49902344 C13.35708049 20.41553193 16.00026005 20.36373847 18.64453125 20.3125 C20.01254883 20.26222656 20.01254883 20.26222656 21.40820312 20.2109375 C25.71297544 20.14832263 28.28529858 20.18532836 32.1015625 22.328125 C33.95703125 24.5625 33.95703125 24.5625 33.95703125 28.5625 C35.17510468 28.55583817 36.3931781 28.54917633 37.64816284 28.54231262 C49.15304484 28.48137657 60.65789389 28.43646741 72.16290092 28.40706348 C78.07709376 28.39143823 83.99115584 28.37025727 89.90527344 28.33618164 C95.61760867 28.30347631 101.32981847 28.28562338 107.04224014 28.27786827 C109.21662494 28.27234481 111.39100323 28.26155898 113.56533432 28.24530983 C116.62166688 28.22338717 119.67748761 28.22053928 122.73388672 28.22192383 C124.06854225 28.20574509 124.06854225 28.20574509 125.43016052 28.1892395 C135.47159678 28.23814522 144.24878 31.03785739 151.95703125 37.5625 C161.88173996 47.84087317 162.53361403 59.50545909 162.41113281 73.03759766 C162.41000292 74.79274469 162.41064096 76.54789361 162.41290283 78.30303955 C162.41404537 83.04213357 162.3906109 87.78081846 162.362607 92.51981783 C162.33751633 97.48188964 162.33524532 102.44397195 162.33050537 107.40609741 C162.31809806 116.79108568 162.28530693 126.17588644 162.24510741 135.56079233 C162.2003197 146.25003255 162.17838508 156.93928196 162.15832567 167.62859273 C162.11657225 189.60666627 162.046264 211.5845713 161.95703125 233.5625 C162.51346817 233.55693588 163.06990509 233.55137177 163.64320374 233.54563904 C166.21785148 233.52325457 168.79247864 233.50963706 171.3671875 233.49609375 C172.24201782 233.48719116 173.11684814 233.47828857 174.01818848 233.46911621 C206.71007594 233.34073504 236.49581771 247.3654406 259.95703125 269.5625 C260.78074219 270.32175781 261.60445313 271.08101563 262.453125 271.86328125 C285.12259511 293.47177772 298.17191297 325.21085719 299.16015625 356.3671875 C299.61321309 385.76682467 292.56491807 413.65613983 274.95703125 437.5625 C274.36664063 438.37589844 273.77625 439.18929688 273.16796875 440.02734375 C252.28581813 467.4407202 222.05996983 485.09952018 187.90234375 489.84814453 C166.76593586 492.4346708 139.30565043 491.67980292 120.37016964 480.57132435 C107.35075698 473.01965131 94.65562231 473.46373471 79.94165039 473.61010742 C77.2459705 473.60740818 74.55047301 473.60151705 71.85482788 473.59161377 C66.08177034 473.57652648 60.30936781 473.58994435 54.53639412 473.62315941 C46.1791782 473.67093224 37.82246488 473.67106454 29.46514457 473.65959219 C15.88705867 473.64194428 2.30923538 473.65753001 -11.26879883 473.6965332 C-24.42244532 473.7342047 -37.57604012 473.76358607 -50.72973633 473.77661133 C-51.54103978 473.77742233 -52.35234323 473.77823333 -53.18823164 473.77906891 C-62.05278061 473.78754976 -70.91732352 473.79204409 -79.78187656 473.79115009 C-80.95152363 473.79103894 -80.95152363 473.79103894 -82.14479994 473.79092554 C-85.26248371 473.79055813 -88.38016731 473.79012044 -91.49785096 473.78914431 C-100.60334564 473.78635323 -109.70861872 473.79592712 -118.81405968 473.82832602 C-124.52149945 473.84826343 -130.22889795 473.85832229 -135.93637192 473.86072876 C-139.2248358 473.86259312 -142.51304878 473.87120287 -145.80146599 473.88982582 C-149.37269476 473.90945823 -152.94348444 473.91059173 -156.51475525 473.90739441 C-157.54404158 473.91769894 -158.57332791 473.92800348 -159.63380474 473.93862027 C-171.27677267 473.88418289 -179.69619722 470.8328044 -187.98828125 462.640625 C-194.85556163 455.22741019 -197.16364393 448.00925958 -197.17439651 437.93127155 C-197.17644915 437.27509768 -197.17850178 436.61892381 -197.18061662 435.94286588 C-197.18627799 433.7407257 -197.18483044 431.53864824 -197.18341064 429.33650208 C-197.18599477 427.74301525 -197.18900807 426.14952908 -197.19241405 424.5560438 C-197.20048167 420.17423437 -197.20227349 415.79244132 -197.20301151 411.41062534 C-197.20486248 406.6858653 -197.21241003 401.96111376 -197.21914673 397.23635864 C-197.23272885 386.90366935 -197.23875457 376.57098394 -197.24315739 366.23828721 C-197.24591999 359.78654476 -197.25015738 353.3348038 -197.25466156 346.88306236 C-197.26685403 329.02016322 -197.27715341 311.15726528 -197.28053665 293.29436207 C-197.28075622 292.15108774 -197.28097578 291.00781341 -197.281202 289.8298944 C-197.28142028 288.68388463 -197.28163856 287.53787485 -197.28186345 286.3571375 C-197.28230692 284.03488529 -197.28275348 281.71263307 -197.28320312 279.39038086 C-197.28342455 278.23846355 -197.28364598 277.08654625 -197.28387412 275.89972236 C-197.28782211 257.23468271 -197.30527626 238.56968209 -197.32856265 219.90465752 C-197.35227729 200.7416991 -197.36473855 181.57876026 -197.36590457 162.41578692 C-197.36682126 151.65643512 -197.37257215 140.89713419 -197.39072418 130.1377964 C-197.40612666 120.97592509 -197.41124474 111.81412038 -197.40298608 102.65223859 C-197.39908013 97.97862483 -197.40000655 93.30514517 -197.41404343 88.63154793 C-197.42678543 84.34988396 -197.42558219 80.06845482 -197.41345271 75.78679117 C-197.41149624 74.24101026 -197.41457186 72.69521269 -197.42329708 71.14945517 C-197.49462234 57.65497959 -195.99905027 47.8047715 -186.4140625 37.875 C-177.95905924 30.02812922 -168.61215123 28.40442203 -157.47924805 28.44897461 C-156.522668 28.44882858 -155.56608795 28.44868256 -154.58052063 28.4485321 C-151.426053 28.44922747 -148.27164479 28.4570023 -145.1171875 28.46484375 C-142.92714978 28.46670926 -140.73711165 28.46813254 -138.54707336 28.46913147 C-132.78822677 28.47294613 -127.02940546 28.48276747 -121.27056885 28.49383545 C-115.39197125 28.50407214 -109.51336957 28.50863393 -103.63476562 28.51367188 C-92.10415556 28.52439067 -80.57356426 28.5414545 -69.04296875 28.5625 C-68.64078125 27.139375 -68.64078125 27.139375 -68.23046875 25.6875 C-67.04296875 22.5625 -67.04296875 22.5625 -64.04296875 20.5625 C-61.7746582 20.33544922 -61.7746582 20.33544922 -59.15625 20.3671875 C-58.21845703 20.37363281 -57.28066406 20.38007812 -56.31445312 20.38671875 C-54.84975586 20.41185547 -54.84975586 20.41185547 -53.35546875 20.4375 C-52.36740234 20.44652344 -51.37933594 20.45554687 -50.36132812 20.46484375 C-47.9216311 20.4884157 -45.48242178 20.52131978 -43.04296875 20.5625 C-43.08292969 19.510625 -43.12289062 18.45875 -43.1640625 17.375 C-42.96100181 10.9818634 -40.43424237 5.99400065 -35.953125 1.4375 C-25.10966293 -7.45969965 -11.55689054 -8.13180826 0 0 Z " fill="#FEFEFE" transform="translate(205.04296875,13.4375)"/>
<path d="M0 0 C0.96633362 -0.00014603 1.93266724 -0.00029205 2.92828369 -0.0004425 C6.1152167 0.00025291 9.3020909 0.008028 12.48901367 0.01586914 C14.70147164 0.01773464 16.91393002 0.01915792 19.12638855 0.02015686 C24.94441878 0.02397167 30.76242398 0.03379314 36.58044434 0.04486084 C42.51936504 0.05509721 48.45828981 0.05965925 54.3972168 0.06469727 C66.04631633 0.07541632 77.69539729 0.09248033 89.34448242 0.11352539 C89.36953857 1.06718994 89.39459473 2.02085449 89.42041016 3.00341797 C89.51460313 6.54261646 89.61479473 10.08162414 89.71679688 13.62060547 C89.76010075 15.15213557 89.80177909 16.68371254 89.84179688 18.21533203 C89.89960974 20.41721721 89.96327212 22.6188675 90.02807617 24.82055664 C90.05314491 25.84727226 90.05314491 25.84727226 90.07872009 26.89472961 C90.17183792 29.88472643 90.39135679 32.2541485 91.34448242 35.11352539 C90.21330994 35.11717102 89.08213745 35.12081665 87.91668701 35.12457275 C77.26327156 35.16149294 66.61014596 35.21923298 55.95695114 35.29742813 C50.47983338 35.33695947 45.00287775 35.36912021 39.52563477 35.38452148 C34.24105996 35.39965077 28.95693075 35.43402999 23.67255402 35.48183441 C21.65515259 35.49668673 19.63768755 35.5045686 17.62023163 35.50540924 C14.79703607 35.50776907 11.97508183 35.53476901 9.15209961 35.56762695 C8.31556351 35.56259659 7.4790274 35.55756622 6.61714172 35.55238342 C3.21108594 35.61383134 0.91065581 35.69267678 -1.87004042 37.75962687 C-4.17061308 40.79260579 -4.15665732 42.50891642 -4.15888214 46.29488373 C-4.16931313 47.57182051 -4.17974412 48.8487573 -4.1904912 50.16438913 C-4.18184265 51.58440785 -4.17281601 53.0044243 -4.16345215 54.42443848 C-4.16805945 55.9305982 -4.17441121 57.43675344 -4.18236113 58.94289923 C-4.1991013 63.08783565 -4.19078699 67.23240498 -4.17841625 71.37734294 C-4.16938716 75.84503753 -4.18332482 80.31266781 -4.19433594 84.78034973 C-4.2121487 93.53494248 -4.20826893 102.28939828 -4.19668537 111.04399645 C-4.18766215 118.15724669 -4.18642223 125.27045846 -4.19078064 132.38371277 C-4.19139357 133.39502277 -4.1920065 134.40633277 -4.19263801 135.44828853 C-4.19391687 137.50256448 -4.19521373 139.55684042 -4.19652838 141.61111635 C-4.20794225 160.88682305 -4.19480781 180.16245373 -4.17332691 199.43814796 C-4.1554552 215.98769336 -4.15855908 232.53712655 -4.17700195 249.08666992 C-4.19839442 268.29207346 -4.20684354 287.49741033 -4.1945529 306.70282412 C-4.19327866 308.74966207 -4.19202118 310.79650004 -4.19078064 312.84333801 C-4.18985499 314.35407419 -4.18985499 314.35407419 -4.18891063 315.89533028 C-4.18545286 323.00235455 -4.19129528 330.10933663 -4.20069885 337.21635437 C-4.21190219 345.874139 -4.20891395 354.53177852 -4.18757588 363.18954647 C-4.17704296 367.60928263 -4.17298161 372.0287766 -4.18617249 376.44851112 C-4.19805608 380.49128814 -4.1916011 384.53359756 -4.17026228 388.57633191 C-4.165779 390.04194878 -4.16810101 391.50760482 -4.17776543 392.97319669 C-4.18986286 394.95949328 -4.17510748 396.94589989 -4.15888214 398.93216705 C-4.15790803 400.58981134 -4.15790803 400.58981134 -4.15691423 402.28094339 C-3.5316533 405.81328219 -2.51274087 406.99512498 0.34448242 409.11352539 C2.27702891 409.69641361 2.27702891 409.69641361 4.33496475 409.60571671 C5.51733196 409.617663 5.51733196 409.617663 6.72358537 409.62985063 C7.58350642 409.61819926 8.44342747 409.60654789 9.32940674 409.59454346 C10.24754017 409.59796116 11.16567359 409.60137886 12.11162925 409.60490012 C15.19509617 409.6115006 18.27769696 409.58946686 21.36108398 409.56762695 C23.56854227 409.56649895 25.77600206 409.56713142 27.98345947 409.56939697 C33.98316214 409.57054686 39.98254636 409.54699275 45.98217487 409.51910114 C52.24955452 409.49413346 58.51694109 409.49174914 64.78436279 409.48699951 C75.30608268 409.47597081 85.82770384 409.45096859 96.34936523 409.4152832 C107.18659886 409.37856574 118.02380071 409.35025271 128.86108398 409.33325195 C129.86313816 409.33167561 129.86313816 409.33167561 130.88543585 409.33006743 C134.23678507 409.32484727 137.58813452 409.31979244 140.93948412 409.31481981 C168.74123176 409.27298462 196.54284887 409.20260599 224.34448242 409.11352539 C223.86495621 408.43665176 223.38542999 407.75977814 222.89137268 407.06239319 C222.26174118 406.16926926 221.63210968 405.27614532 220.98339844 404.35595703 C220.35949722 403.4728334 219.73559601 402.58970978 219.0927887 401.67982483 C216.87276916 398.42110811 215.00812174 395.09065643 213.28198242 391.55102539 C212.95109619 390.87539551 212.62020996 390.19976562 212.27929688 389.50366211 C198.94104119 361.57980363 194.96404429 326.95388412 204.34448242 297.11352539 C204.55878906 296.42452148 204.7730957 295.73551758 204.99389648 295.02563477 C212.30978861 272.30057829 226.43315882 249.91520593 245.34448242 235.11352539 C246.17850586 234.43161133 247.0125293 233.74969727 247.87182617 233.04711914 C273.14415633 213.11352539 273.14415633 213.11352539 285.34448242 213.11352539 C285.33068165 190.77375159 285.28847979 168.43419258 285.21239185 146.0945406 C285.17772691 135.72202003 285.15238436 125.34963257 285.14892578 114.97705078 C285.14588798 105.9371364 285.12542232 96.89745898 285.08395785 87.85763615 C285.06260942 83.07028591 285.05003669 78.2832727 285.05832863 73.4958744 C285.06585713 68.99035067 285.05009526 64.48551049 285.01642227 59.98011208 C285.00817445 58.32613642 285.00845621 56.67209297 285.01788521 55.01812363 C285.02948723 52.75946924 285.01042418 50.50306264 284.98371887 48.24458313 C284.98095349 46.98080495 284.97818811 45.71702677 284.97533894 44.41495228 C284.16925526 40.19651867 282.7072979 38.71115057 279.34448242 36.11352539 C277.35875846 35.38495399 277.35875846 35.38495399 275.32646179 35.47428894 C274.56231461 35.45900146 273.79816742 35.44371399 273.01086426 35.42796326 C272.18727417 35.4365889 271.36368408 35.44521454 270.51513672 35.45410156 C269.63658524 35.44361786 268.75803375 35.43313416 267.8528595 35.42233276 C264.95777995 35.39360152 262.06389764 35.39987201 259.16870117 35.40649414 C257.15800987 35.39337794 255.14733175 35.37807396 253.13667297 35.360672 C247.85123757 35.32080011 242.56614668 35.31063011 237.28057861 35.30664062 C231.88445571 35.29731337 226.48853559 35.25990233 221.0925293 35.22485352 C210.50985649 35.16025528 199.92733513 35.12703349 189.34448242 35.11352539 C189.5821936 34.09415894 189.5821936 34.09415894 189.82470703 33.05419922 C190.41816724 29.69664724 190.55936184 26.47114478 190.66088867 23.06274414 C190.69206032 22.07453423 190.69206032 22.07453423 190.72386169 21.06636047 C190.78883731 18.97801354 190.84799817 16.88954927 190.90698242 14.80102539 C190.95021721 13.3784876 190.99383302 11.95596133 191.0378418 10.53344727 C191.14446458 7.06026242 191.2458759 3.58694813 191.34448242 0.11352539 C204.07973686 0.04387429 216.81494564 -0.00936261 229.5503521 -0.04191113 C235.46454494 -0.05753638 241.37860701 -0.07871734 247.29272461 -0.11279297 C253.00505984 -0.1454983 258.71726965 -0.16335123 264.42969131 -0.17110634 C266.60407611 -0.1766298 268.7784544 -0.18741563 270.95278549 -0.20366478 C274.00911805 -0.22558744 277.06493878 -0.22843533 280.12133789 -0.22705078 C281.01110825 -0.23783661 281.9008786 -0.24862244 282.81761169 -0.25973511 C292.85904796 -0.21082939 301.63623117 2.58888278 309.34448242 9.11352539 C319.26919114 19.39189856 319.9210652 31.05648448 319.79858398 44.58862305 C319.79745409 46.34377008 319.79809213 48.098919 319.800354 49.85406494 C319.80149655 54.59315897 319.77806208 59.33184385 319.75005817 64.07084322 C319.7249675 69.03291503 319.72269649 73.99499734 319.71795654 78.9571228 C319.70554924 88.34211107 319.6727581 97.72691183 319.63255858 107.11181772 C319.58777087 117.80105794 319.56583625 128.49030735 319.54577684 139.17961812 C319.50402342 161.15769166 319.43371517 183.13559669 319.34448242 205.11352539 C319.90091934 205.10796127 320.45735626 205.10239716 321.03065491 205.09666443 C323.60530266 205.07427996 326.17992981 205.06066245 328.75463867 205.04711914 C329.62946899 205.03821655 330.50429932 205.02931396 331.40563965 205.0201416 C364.09752711 204.89176043 393.88326888 218.91646599 417.34448242 241.11352539 C418.16819336 241.8727832 418.9919043 242.63204102 419.84057617 243.41430664 C442.51004628 265.02280311 455.55936414 296.76188258 456.54760742 327.91821289 C457.00066426 357.31785006 449.95236925 385.20716522 432.34448242 409.11352539 C431.7540918 409.92692383 431.16370117 410.74032227 430.55541992 411.57836914 C409.6732693 438.99174559 379.447421 456.65054557 345.28979492 461.39916992 C324.15338704 463.98569619 296.6931016 463.23082831 277.75762081 452.12234974 C264.73820815 444.5706767 252.04307348 445.0147601 237.32910156 445.16113281 C234.63342167 445.15843357 231.93792418 445.15254244 229.24227905 445.14263916 C223.46922151 445.12755187 217.69681898 445.14096974 211.92384529 445.1741848 C203.56662937 445.22195763 195.20991605 445.22208993 186.85259574 445.21061758 C173.27450985 445.19296967 159.69668655 445.2085554 146.11865234 445.24755859 C132.96500585 445.28523009 119.81141105 445.31461146 106.65771484 445.32763672 C105.84641139 445.32844772 105.03510794 445.32925872 104.19921953 445.3300943 C95.33467056 445.33857515 86.47012765 445.34306948 77.60557461 445.34217548 C76.43592754 445.34206433 76.43592754 445.34206433 75.24265124 445.34195093 C72.12496746 445.34158352 69.00728386 445.34114583 65.88960021 445.34016971 C56.78410553 445.33737862 47.67883245 445.34695251 38.57339149 445.37935141 C32.86595172 445.39928882 27.15855322 445.40934768 21.45107926 445.41175415 C18.16261537 445.41361851 14.87440239 445.42222826 11.58598518 445.44085121 C8.01475641 445.46048362 4.44396673 445.46161712 0.87269592 445.4584198 C-0.15659041 445.46872433 -1.18587674 445.47902887 -2.24635357 445.48964566 C-13.8893215 445.43520828 -22.30874605 442.38382979 -30.60083008 434.19165039 C-37.46811046 426.77843558 -39.77619276 419.56028497 -39.78694534 409.48229694 C-39.78899798 408.82612307 -39.79105061 408.1699492 -39.79316545 407.49389127 C-39.79882682 405.29175109 -39.79737927 403.08967363 -39.79595947 400.88752747 C-39.7985436 399.29404064 -39.8015569 397.70055447 -39.80496287 396.10706919 C-39.81303049 391.72525976 -39.81482231 387.34346671 -39.81556034 382.96165073 C-39.81741131 378.2368907 -39.82495886 373.51213916 -39.83169556 368.78738403 C-39.84527768 358.45469474 -39.8513034 348.12200933 -39.85570621 337.7893126 C-39.85846882 331.33757015 -39.86270621 324.88582919 -39.86721039 318.43408775 C-39.87940286 300.57118861 -39.88970224 282.70829067 -39.89308548 264.84538746 C-39.89330505 263.70211313 -39.89352461 262.5588388 -39.89375083 261.3809198 C-39.89396911 260.23491002 -39.89418739 259.08890024 -39.89441228 257.90816289 C-39.89485575 255.58591068 -39.89530231 253.26365846 -39.89575195 250.94140625 C-39.89597338 249.78948895 -39.89619481 248.63757164 -39.89642295 247.45074775 C-39.90037094 228.7857081 -39.91782509 210.12070748 -39.94111148 191.45568291 C-39.96482612 172.29272449 -39.97728738 153.12978565 -39.9784534 133.96681231 C-39.97937009 123.20746051 -39.98512098 112.44815958 -40.00327301 101.68882179 C-40.01867549 92.52695048 -40.02379357 83.36514577 -40.01553491 74.20326398 C-40.01162896 69.52965022 -40.01255538 64.85617056 -40.02659225 60.18257332 C-40.03933426 55.90090935 -40.03813102 51.61948021 -40.02600154 47.33781656 C-40.02404507 45.79203565 -40.02712069 44.24623808 -40.03584591 42.70048056 C-40.10717117 29.20600498 -38.6115991 19.35579689 -29.02661133 9.42602539 C-20.54086207 1.55062004 -11.16914731 -0.04423719 0 0 Z " fill="#5FC77D" transform="translate(47.655517578125,41.886474609375)"/>
<path d="M0 0 C0.96633362 -0.00014603 1.93266724 -0.00029205 2.92828369 -0.0004425 C6.1152167 0.00025291 9.3020909 0.008028 12.48901367 0.01586914 C14.70147164 0.01773464 16.91393002 0.01915792 19.12638855 0.02015686 C24.94441878 0.02397167 30.76242398 0.03379314 36.58044434 0.04486084 C42.51936504 0.05509721 48.45828981 0.05965925 54.3972168 0.06469727 C66.04631633 0.07541632 77.69539729 0.09248033 89.34448242 0.11352539 C89.36953857 1.06718994 89.39459473 2.02085449 89.42041016 3.00341797 C89.51460313 6.54261646 89.61479473 10.08162414 89.71679688 13.62060547 C89.76010075 15.15213557 89.80177909 16.68371254 89.84179688 18.21533203 C89.89960974 20.41721721 89.96327212 22.6188675 90.02807617 24.82055664 C90.05314491 25.84727226 90.05314491 25.84727226 90.07872009 26.89472961 C90.17183792 29.88472643 90.39135679 32.2541485 91.34448242 35.11352539 C90.21330994 35.11717102 89.08213745 35.12081665 87.91668701 35.12457275 C77.26327156 35.16149294 66.61014596 35.21923298 55.95695114 35.29742813 C50.47983338 35.33695947 45.00287775 35.36912021 39.52563477 35.38452148 C34.24105996 35.39965077 28.95693075 35.43402999 23.67255402 35.48183441 C21.65515259 35.49668673 19.63768755 35.5045686 17.62023163 35.50540924 C14.79703607 35.50776907 11.97508183 35.53476901 9.15209961 35.56762695 C8.31556351 35.56259659 7.4790274 35.55756622 6.61714172 35.55238342 C3.21108594 35.61383134 0.91065581 35.69267678 -1.87004042 37.75962687 C-4.17061308 40.79260579 -4.15665732 42.50891642 -4.15888214 46.29488373 C-4.16931313 47.57182051 -4.17974412 48.8487573 -4.1904912 50.16438913 C-4.18184265 51.58440785 -4.17281601 53.0044243 -4.16345215 54.42443848 C-4.16805945 55.9305982 -4.17441121 57.43675344 -4.18236113 58.94289923 C-4.1991013 63.08783565 -4.19078699 67.23240498 -4.17841625 71.37734294 C-4.16938716 75.84503753 -4.18332482 80.31266781 -4.19433594 84.78034973 C-4.2121487 93.53494248 -4.20826893 102.28939828 -4.19668537 111.04399645 C-4.18766215 118.15724669 -4.18642223 125.27045846 -4.19078064 132.38371277 C-4.19139357 133.39502277 -4.1920065 134.40633277 -4.19263801 135.44828853 C-4.19391687 137.50256448 -4.19521373 139.55684042 -4.19652838 141.61111635 C-4.20794225 160.88682305 -4.19480781 180.16245373 -4.17332691 199.43814796 C-4.1554552 215.98769336 -4.15855908 232.53712655 -4.17700195 249.08666992 C-4.19839442 268.29207346 -4.20684354 287.49741033 -4.1945529 306.70282412 C-4.19327866 308.74966207 -4.19202118 310.79650004 -4.19078064 312.84333801 C-4.18985499 314.35407419 -4.18985499 314.35407419 -4.18891063 315.89533028 C-4.18545286 323.00235455 -4.19129528 330.10933663 -4.20069885 337.21635437 C-4.21190219 345.874139 -4.20891395 354.53177852 -4.18757588 363.18954647 C-4.17704296 367.60928263 -4.17298161 372.0287766 -4.18617249 376.44851112 C-4.19805608 380.49128814 -4.1916011 384.53359756 -4.17026228 388.57633191 C-4.165779 390.04194878 -4.16810101 391.50760482 -4.17776543 392.97319669 C-4.18986286 394.95949328 -4.17510748 396.94589989 -4.15888214 398.93216705 C-4.15790803 400.58981134 -4.15790803 400.58981134 -4.15691423 402.28094339 C-3.53174929 405.81273992 -2.51259096 406.99583402 0.34448242 409.11352539 C2.26977755 409.68832819 2.26977755 409.68832819 4.31706238 409.58502102 C5.10139019 409.58845152 5.885718 409.59188203 6.69381332 409.59541649 C7.54943989 409.57878851 8.40506645 409.56216054 9.28662109 409.54502869 C10.20037128 409.54335758 11.11412148 409.54168648 12.05556107 409.53996474 C15.12493374 409.52980373 18.19330769 409.49122565 21.26245117 409.453125 C23.46028155 409.44057956 25.65812374 409.42997601 27.85597229 409.4211731 C32.59401426 409.39921581 37.33179185 409.36579949 42.06970215 409.32429314 C49.56721291 409.26104838 57.06451257 409.2376524 64.56225586 409.22254944 C75.080682 409.19902509 85.59906395 409.17086038 96.11743164 409.12841797 C96.78491023 409.12573654 97.45238883 409.12305511 98.14009404 409.12029243 C108.94077657 409.07574415 119.74100475 408.99691949 130.5414077 408.90888648 C141.64285897 408.81960073 152.74386601 408.78131832 163.84568691 408.78402334 C170.07431777 408.78347881 176.30077281 408.75867407 182.52890015 408.67609978 C188.39344427 408.59841105 194.25507947 408.58137844 200.12003899 408.60989761 C202.26627865 408.60955474 204.41265247 408.58710366 206.55838203 408.54031181 C223.58409224 408.18809543 223.58409224 408.18809543 229.21643066 412.94815254 C232.33638411 416.07063883 234.81958889 419.50118915 237.34448242 423.11352539 C244.50197766 431.21884303 253.00624782 437.0452373 261.92675781 443.04125977 C262.39460693 443.39510742 262.86245605 443.74895508 263.34448242 444.11352539 C263.34448242 444.44352539 263.34448242 444.77352539 263.34448242 445.11352539 C228.60873208 445.1822252 193.87299728 445.23507128 159.13719366 445.26672138 C155.03425204 445.2704734 150.93131056 445.27435638 146.82836914 445.27832031 C146.0115638 445.27910724 145.19475845 445.27989418 144.35320143 445.28070495 C131.13588966 445.29375099 117.91861711 445.3174004 104.70132859 445.34498378 C91.13435387 445.37306032 77.56739967 445.3897064 64.00039709 445.39579087 C55.63204847 445.39990265 47.26381076 445.41287904 38.89549629 445.43727479 C33.15330973 445.45315975 27.41118033 445.45791951 21.6689734 445.45402952 C18.35836252 445.45211225 15.04798532 445.45665713 11.73740005 445.47114182 C8.14115566 445.48610329 4.54538288 445.48246517 0.9491272 445.47428894 C-0.08786422 445.48302746 -1.12485564 445.49176599 -2.19327104 445.50076932 C-13.85896943 445.42925484 -22.28902982 442.40330847 -30.60083008 434.19165039 C-37.46811046 426.77843558 -39.77619276 419.56028497 -39.78694534 409.48229694 C-39.78899798 408.82612307 -39.79105061 408.1699492 -39.79316545 407.49389127 C-39.79882682 405.29175109 -39.79737927 403.08967363 -39.79595947 400.88752747 C-39.7985436 399.29404064 -39.8015569 397.70055447 -39.80496287 396.10706919 C-39.81303049 391.72525976 -39.81482231 387.34346671 -39.81556034 382.96165073 C-39.81741131 378.2368907 -39.82495886 373.51213916 -39.83169556 368.78738403 C-39.84527768 358.45469474 -39.8513034 348.12200933 -39.85570621 337.7893126 C-39.85846882 331.33757015 -39.86270621 324.88582919 -39.86721039 318.43408775 C-39.87940286 300.57118861 -39.88970224 282.70829067 -39.89308548 264.84538746 C-39.89330505 263.70211313 -39.89352461 262.5588388 -39.89375083 261.3809198 C-39.89396911 260.23491002 -39.89418739 259.08890024 -39.89441228 257.90816289 C-39.89485575 255.58591068 -39.89530231 253.26365846 -39.89575195 250.94140625 C-39.89597338 249.78948895 -39.89619481 248.63757164 -39.89642295 247.45074775 C-39.90037094 228.7857081 -39.91782509 210.12070748 -39.94111148 191.45568291 C-39.96482612 172.29272449 -39.97728738 153.12978565 -39.9784534 133.96681231 C-39.97937009 123.20746051 -39.98512098 112.44815958 -40.00327301 101.68882179 C-40.01867549 92.52695048 -40.02379357 83.36514577 -40.01553491 74.20326398 C-40.01162896 69.52965022 -40.01255538 64.85617056 -40.02659225 60.18257332 C-40.03933426 55.90090935 -40.03813102 51.61948021 -40.02600154 47.33781656 C-40.02404507 45.79203565 -40.02712069 44.24623808 -40.03584591 42.70048056 C-40.10717117 29.20600498 -38.6115991 19.35579689 -29.02661133 9.42602539 C-20.54086207 1.55062004 -11.16914731 -0.04423719 0 0 Z " fill="#894E44" transform="translate(47.655517578125,41.886474609375)"/>
<path d="M0 0 C12.73525444 -0.06965111 25.47046322 -0.122888 38.20586967 -0.15543652 C44.12006251 -0.17106177 50.03412459 -0.19224273 55.94824219 -0.22631836 C61.66057742 -0.25902369 67.37278722 -0.27687662 73.08520889 -0.28463173 C75.25959369 -0.29015519 77.43397198 -0.30094102 79.60830307 -0.31719017 C82.66463563 -0.33911283 85.72045636 -0.34196072 88.77685547 -0.34057617 C89.66662582 -0.351362 90.55639618 -0.36214783 91.47312927 -0.3732605 C101.51456553 -0.32435478 110.29174875 2.47535739 118 9 C127.94997937 19.30454433 128.57616953 31.00293139 128.45410156 44.56689453 C128.45297168 46.33189366 128.45360968 48.09689466 128.45587158 49.8618927 C128.45701418 54.62784441 128.43357872 59.39338933 128.40557575 64.15924692 C128.3804861 69.14934607 128.37821415 74.13945566 128.37347412 79.12960815 C128.36106652 88.56771986 128.32827498 98.00564513 128.28807616 107.44367492 C128.24328937 118.19337364 128.22135406 128.94308149 128.20129442 139.69285035 C128.15954033 161.79533742 128.0892315 183.89765694 128 206 C127.42850723 206.08204178 126.85701447 206.16408356 126.26820374 206.24861145 C123.64830282 206.62686943 121.02924001 207.0106577 118.41015625 207.39453125 C117.51123657 207.52347778 116.61231689 207.65242432 115.68615723 207.78527832 C109.98611824 208.62562693 104.50601732 209.7301226 98.99609375 211.44921875 C97 212 97 212 94 212 C93.99945523 211.12332074 93.99891047 210.24664148 93.99834919 209.34339619 C93.98338701 188.01954431 93.94096296 166.69590165 93.86790943 145.37216663 C93.83324475 135.06018009 93.80790197 124.74832742 93.80444336 114.4362793 C93.80140552 105.44910199 93.78093937 96.46216303 93.73947543 87.47507781 C93.71812733 82.71567268 93.7055541 77.95660655 93.71384621 73.19715309 C93.72137492 68.71789261 93.70561198 64.23931967 93.67193985 59.76018524 C93.66369228 58.11588505 93.66397349 56.47151667 93.67340279 54.82722282 C93.68500555 52.58170102 93.66594078 50.33843982 93.63923645 48.09309387 C93.63647107 46.83669003 93.63370569 45.5802862 93.63085651 44.28580952 C92.82313664 40.07880904 91.35269506 38.59274179 88 36 C86.01427604 35.2714286 86.01427604 35.2714286 83.98197937 35.36076355 C83.21783218 35.34547607 82.453685 35.3301886 81.66638184 35.31443787 C80.84279175 35.32306351 80.01920166 35.33168915 79.1706543 35.34057617 C78.29210281 35.33009247 77.41355133 35.31960876 76.50837708 35.30880737 C73.61329753 35.28007613 70.71941522 35.28634661 67.82421875 35.29296875 C65.81352745 35.27985255 63.80284933 35.26454857 61.79219055 35.24714661 C56.50675515 35.20727472 51.22166426 35.19710472 45.93609619 35.19311523 C40.53997329 35.18378798 35.14405317 35.14637694 29.74804688 35.11132812 C19.16537407 35.04672989 8.58285271 35.0135081 -2 35 C-1.84152588 34.32042236 -1.68305176 33.64084473 -1.51977539 32.94067383 C-0.92631519 29.58312185 -0.78512058 26.35761939 -0.68359375 22.94921875 C-0.66281265 22.29041214 -0.64203156 21.63160553 -0.62062073 20.95283508 C-0.55564511 18.86448815 -0.49648425 16.77602388 -0.4375 14.6875 C-0.39426521 13.2649622 -0.3506494 11.84243594 -0.30664062 10.41992188 C-0.20001784 6.94673703 -0.09860652 3.47342274 0 0 Z " fill="#894D43" transform="translate(239,42)"/>
<path d="M0 0 C5.08084721 4.50667898 7.34986259 10.04398362 8.95703125 16.5625 C8.95703125 17.8825 8.95703125 19.2025 8.95703125 20.5625 C9.53670654 20.54155273 10.11638184 20.52060547 10.71362305 20.49902344 C13.35708049 20.41553193 16.00026005 20.36373847 18.64453125 20.3125 C20.01254883 20.26222656 20.01254883 20.26222656 21.40820312 20.2109375 C22.73754883 20.19160156 22.73754883 20.19160156 24.09375 20.171875 C24.90545654 20.15092773 25.71716309 20.12998047 26.5534668 20.10839844 C30.02998694 20.76521179 31.57581383 21.95554025 33.95703125 24.5625 C34.45621738 27.28996804 34.63764078 29.38750077 34.5859375 32.109375 C34.58834946 32.83940735 34.59076141 33.5694397 34.59324646 34.32159424 C34.59226863 35.86484205 34.57888963 37.4081252 34.55395508 38.95117188 C34.51983585 41.29160541 34.53324639 43.62821849 34.55273438 45.96875 C34.54571932 53.61920523 34.49717798 60.08950095 29.95703125 66.5625 C24.53544889 70.87763698 20.28842766 71.71395725 13.55151367 71.73950195 C12.79993484 71.74607315 12.04835602 71.75264435 11.27400208 71.75941467 C8.78683368 71.77912468 6.29972559 71.79080487 3.8125 71.80078125 C2.96220026 71.80485678 2.11190052 71.8089323 1.23583412 71.81313133 C-3.26440563 71.83398188 -7.76461498 71.84828821 -12.26489258 71.85766602 C-16.90874639 71.86873079 -21.55212109 71.90313415 -26.19580555 71.94283772 C-29.7706541 71.969003 -33.34538844 71.97735774 -36.92032433 71.98094749 C-38.63191655 71.98581338 -40.34350368 71.99742748 -42.05500221 72.01598549 C-44.45347537 72.04037677 -46.85070794 72.0394125 -49.24926758 72.0324707 C-49.95234039 72.04528076 -50.65541321 72.05809082 -51.37979126 72.07128906 C-56.38557004 72.01864086 -59.17429759 70.67017427 -63.04296875 67.5625 C-67.3867369 62.63173615 -68.23069017 59.53841862 -68.46484375 53.10546875 C-68.49273987 52.36549149 -68.52063599 51.62551422 -68.54937744 50.8631134 C-68.60579899 49.29547555 -68.65941354 47.72773455 -68.71044922 46.15991211 C-68.792311 43.76920907 -68.89593373 41.38005947 -69 38.99023438 C-69.05213622 37.46619158 -69.10295983 35.94210321 -69.15234375 34.41796875 C-69.18656433 33.70634079 -69.22078491 32.99471283 -69.25604248 32.26152039 C-69.36837002 27.81404773 -68.79701339 25.08815914 -66.04296875 21.5625 C-63.59021734 20.3361243 -61.99239065 20.44834686 -59.25390625 20.46484375 C-58.31289062 20.46806641 -57.371875 20.47128906 -56.40234375 20.47460938 C-54.92507812 20.48717773 -54.92507812 20.48717773 -53.41796875 20.5 C-52.42539063 20.50451172 -51.4328125 20.50902344 -50.41015625 20.51367188 C-47.95436715 20.52547855 -45.49869771 20.541946 -43.04296875 20.5625 C-43.08292969 19.510625 -43.12289062 18.45875 -43.1640625 17.375 C-42.96100181 10.9818634 -40.43424237 5.99400065 -35.953125 1.4375 C-25.10966293 -7.45969965 -11.55689054 -8.13180826 0 0 Z " fill="#BFDAEF" transform="translate(205.04296875,13.4375)"/>
<path d="M0 0 C2 1.0625 2 1.0625 3 3 C3.69249268 7.0857068 3.96632905 9.48608448 1.7109375 13.01953125 C-0.6884331 15.79688489 -3.01892947 18.36624813 -6.11645508 20.3671875 C-9.43698917 22.76209799 -11.61506717 25.03247927 -12.42376709 29.16601562 C-13.04709649 35.75935436 -12.83686178 42.38768479 -12.6875 49 C-12.63560264 52.00280534 -12.59584497 55.00407476 -12.58589172 58.00732422 C-12.5783153 59.86860776 -12.54651956 61.73000904 -12.48625183 63.59033203 C-12.440205 69.95867963 -13.94326942 74.06356269 -18 79 C-22.06220487 82.68432535 -24.44656837 84.1173237 -29.87353516 84.17700195 C-31.39619492 84.19625481 -31.39619492 84.19625481 -32.94961548 84.21589661 C-34.051633 84.22328354 -35.15365051 84.23067047 -36.2890625 84.23828125 C-37.42145355 84.246353 -38.5538446 84.25442474 -39.72055054 84.26274109 C-42.12309229 84.27659321 -44.52565381 84.28731029 -46.92822266 84.29516602 C-50.589252 84.31233238 -54.2493676 84.35620444 -57.91015625 84.40039062 C-60.24478503 84.41052149 -62.57942149 84.41903636 -64.9140625 84.42578125 C-66.5488707 84.45204338 -66.5488707 84.45204338 -68.21670532 84.47883606 C-74.59334266 84.46079454 -79.76179084 83.8842475 -85 80 C-88.66642931 75.39346061 -90.11323487 71.8046855 -90.17700195 65.98120117 C-90.18983719 64.95971481 -90.20267242 63.93822845 -90.21589661 62.88578796 C-90.22328354 61.78265762 -90.23067047 60.67952728 -90.23828125 59.54296875 C-90.246353 58.4072493 -90.25442474 57.27152985 -90.26274109 56.10139465 C-90.27657793 53.69643682 -90.28730187 51.29145939 -90.29516602 48.88647461 C-90.31238355 45.21234887 -90.35627539 41.53912178 -90.40039062 37.86523438 C-90.41051723 35.52865245 -90.41903343 33.19206288 -90.42578125 30.85546875 C-90.44328934 29.7584111 -90.46079742 28.66135345 -90.47883606 27.53105164 C-90.46130278 21.35248734 -90.15863925 17.68591828 -86 13 C-81.55182556 8.996643 -78.07167646 6.75232404 -72.03540039 6.74121094 C-71.05080338 6.73490662 -70.06620636 6.72860229 -69.05177307 6.72210693 C-67.99441452 6.7261554 -66.93705597 6.73020386 -65.84765625 6.734375 C-64.20923012 6.73150482 -64.20923012 6.73150482 -62.53770447 6.72857666 C-60.22866587 6.72721621 -57.91961959 6.73090284 -55.6105957 6.73925781 C-52.07941455 6.74994879 -48.54874334 6.73936282 -45.01757812 6.7265625 C-42.77343638 6.72788432 -40.52929495 6.73044718 -38.28515625 6.734375 C-37.22982193 6.73032654 -36.17448761 6.72627808 -35.08717346 6.72210693 C-34.09942429 6.72841125 -33.11167511 6.73471558 -32.09399414 6.74121094 C-31.22891739 6.74280212 -30.36384064 6.74439331 -29.47254944 6.74603271 C-26.69460472 7.0313686 -24.56050081 7.91816638 -22 9 C-18.16191117 8.7665041 -16.42817958 6.718214 -13.875 4 C-9.23314925 -0.90459702 -6.69239915 -1.49176177 0 0 Z " fill="#E0EFFE" transform="translate(167,223)"/>
<path d="M0 0 C2.875 1.5 2.875 1.5 5 4 C5.83672424 8.18362119 6.02443358 10.40780805 3.703125 14.015625 C1.31212927 16.80146407 -1.0296342 19.36444402 -4.11425781 21.38476562 C-7.39416967 23.77378043 -9.60087664 26.0317452 -10.4309082 30.125 C-11.07680925 36.56453608 -10.88303587 43.03871397 -10.75 49.5 C-10.71088919 52.43137925 -10.68365469 55.36169222 -10.67926025 58.29333496 C-10.67446932 60.11001059 -10.64913053 61.92679264 -10.59954834 63.74279785 C-10.5516934 70.28613144 -11.90426652 75.65906637 -16.44793701 80.56262207 C-20.80957408 84.4263303 -24.26961329 85.11199744 -29.91699219 85.17700195 C-31.3793631 85.19625481 -31.3793631 85.19625481 -32.87127686 85.21589661 C-33.91922424 85.22328354 -34.96717163 85.23067047 -36.046875 85.23828125 C-37.6746286 85.25038887 -37.6746286 85.25038887 -39.33526611 85.26274109 C-41.63169769 85.2765652 -43.92814968 85.28729483 -46.22460938 85.29516602 C-49.72305576 85.31236752 -53.2205542 85.35626879 -56.71875 85.40039062 C-58.95311807 85.41051916 -61.18749416 85.41903476 -63.421875 85.42578125 C-64.46172546 85.44328934 -65.50157593 85.46079742 -66.57293701 85.47883606 C-72.83262551 85.46029153 -77.84904418 84.77641641 -83 81 C-86.66642931 76.39346061 -88.11323487 72.8046855 -88.17700195 66.98120117 C-88.18983719 65.95971481 -88.20267242 64.93822845 -88.21589661 63.88578796 C-88.22328354 62.78265762 -88.23067047 61.67952728 -88.23828125 60.54296875 C-88.246353 59.4072493 -88.25442474 58.27152985 -88.26274109 57.10139465 C-88.27657793 54.69643682 -88.28730187 52.29145939 -88.29516602 49.88647461 C-88.31238355 46.21234887 -88.35627539 42.53912178 -88.40039062 38.86523438 C-88.41051723 36.52865245 -88.41903343 34.19206288 -88.42578125 31.85546875 C-88.44328934 30.7584111 -88.46079742 29.66135345 -88.47883606 28.53105164 C-88.46130278 22.35248734 -88.15863925 18.68591828 -84 14 C-79.55182556 9.996643 -76.07167646 7.75232404 -70.03540039 7.74121094 C-69.05080338 7.73490662 -68.06620636 7.72860229 -67.05177307 7.72210693 C-65.99441452 7.7261554 -64.93705597 7.73020386 -63.84765625 7.734375 C-62.20923012 7.73150482 -62.20923012 7.73150482 -60.53770447 7.72857666 C-58.22866587 7.72721621 -55.91961959 7.73090284 -53.6105957 7.73925781 C-50.07941455 7.74994879 -46.54874334 7.73936282 -43.01757812 7.7265625 C-40.77343638 7.72788432 -38.52929495 7.73044718 -36.28515625 7.734375 C-35.22982193 7.73032654 -34.17448761 7.72627808 -33.08717346 7.72210693 C-32.09942429 7.72841125 -31.11167511 7.73471558 -30.09399414 7.74121094 C-29.22891739 7.74280212 -28.36384064 7.74439331 -27.47254944 7.74603271 C-24.69460472 8.0313686 -22.56050081 8.91816638 -20 10 C-16.16191117 9.7665041 -14.42817958 7.718214 -11.875 5 C-7.89159075 0.79111475 -5.97406177 -0.58569233 0 0 Z " fill="#E0EEFE" transform="translate(165,333)"/>
<path d="M0 0 C2.875 1.4375 2.875 1.4375 5 4 C5.73645288 7.11778403 5.72217461 9.87950306 5 13 C2.89828275 15.6891409 0.25042945 17.59576758 -2.42578125 19.69140625 C-7.92214748 24.57107139 -10.88059003 28.3689044 -11.48825073 35.81503296 C-11.58141313 40.53940046 -11.43638233 45.21995754 -11.1875 49.9375 C-11.09583726 52.82161114 -11.02608135 55.70461559 -10.97566223 58.58973694 C-10.93835482 60.36808985 -10.87460978 62.14616996 -10.77909851 63.92234802 C-10.57131598 69.80081804 -11.61628879 74.12185105 -15 79 C-17.8728178 81.95577602 -20.91540716 84.86493166 -25.16752625 85.14044189 C-26.065746 85.1472699 -26.96396576 85.1540979 -27.8894043 85.16113281 C-28.90773849 85.17074036 -29.92607269 85.1803479 -30.9752655 85.19024658 C-32.08042007 85.19449646 -33.18557465 85.19874634 -34.32421875 85.203125 C-35.45898148 85.20882507 -36.5937442 85.21452515 -37.76289368 85.22039795 C-40.1696377 85.22985921 -42.57639475 85.23638638 -44.9831543 85.24023438 C-48.65501775 85.24991437 -52.3263155 85.28091734 -55.99804688 85.3125 C-58.33593418 85.31903251 -60.67382548 85.32428201 -63.01171875 85.328125 C-64.10675217 85.3404718 -65.20178558 85.3528186 -66.33000183 85.36553955 C-73.00593733 85.34616499 -78.43317916 84.99900856 -83.7421875 80.53515625 C-87.35176357 75.84270736 -88.11319767 72.6801648 -88.17700195 66.86767578 C-88.18983719 65.84626495 -88.20267242 64.82485413 -88.21589661 63.77249146 C-88.22328354 62.6745224 -88.23067047 61.57655334 -88.23828125 60.4453125 C-88.246353 59.311008 -88.25442474 58.17670349 -88.26274109 57.00802612 C-88.27656483 54.60904461 -88.28729462 52.21004358 -88.29516602 49.81103516 C-88.31240228 46.14578055 -88.35630798 42.48142257 -88.40039062 38.81640625 C-88.41051593 36.48438162 -88.41903254 34.15234934 -88.42578125 31.8203125 C-88.44328934 30.72639191 -88.46079742 29.63247131 -88.47883606 28.50540161 C-88.46127231 22.33547575 -88.15552631 18.67716234 -84 14 C-79.7786515 10.28119299 -77.49157595 8.87534493 -71.91113281 8.87060547 C-70.84952942 8.86745331 -69.78792603 8.86430115 -68.69415283 8.86105347 C-66.96609406 8.86408981 -66.96609406 8.86408981 -65.203125 8.8671875 C-63.43083527 8.86575241 -63.43083527 8.86575241 -61.6227417 8.86428833 C-59.11763455 8.86360664 -56.61252565 8.86546015 -54.10742188 8.86962891 C-50.27990721 8.87495836 -46.45251091 8.86969332 -42.625 8.86328125 C-40.19270807 8.86394241 -37.76041622 8.86522434 -35.328125 8.8671875 C-33.61221161 8.86415115 -33.61221161 8.86415115 -31.8616333 8.86105347 C-30.25031525 8.86578171 -30.25031525 8.86578171 -28.60644531 8.87060547 C-27.66649719 8.87140106 -26.72654907 8.87219666 -25.75811768 8.87301636 C-23 9 -23 9 -19.80487061 9.62283325 C-16.86907927 10.3489468 -16.86907927 10.3489468 -14.515625 8.1640625 C-13.76796875 7.32617188 -13.0203125 6.48828125 -12.25 5.625 C-8.10412248 1.07017538 -6.36579757 -0.6240978 0 0 Z " fill="#E0EEFE" transform="translate(165,111)"/>
<path d="M0 0 C3.35234564 2.4251011 4.77884572 3.8450832 5.5625 7.9375 C4.4049168 14.23989745 -0.56541749 18.98549221 -4.6875 23.6875 C-5.76400176 24.92883751 -6.83951409 26.17103371 -7.9140625 27.4140625 C-8.70345215 28.32720215 -8.70345215 28.32720215 -9.50878906 29.25878906 C-12.30936174 32.52887491 -15.00882978 35.88067465 -17.72265625 39.22265625 C-20.28204054 42.34396367 -22.88593791 45.4245003 -25.5 48.5 C-28.87283589 52.46903543 -32.21176645 56.46017021 -35.5 60.5 C-39.24787798 65.1045358 -43.06983444 69.64019191 -46.9140625 74.1640625 C-49.81244823 77.5805954 -52.671551 81.02504838 -55.5 84.5 C-59.24259344 89.09804337 -63.05758822 93.62870599 -66.89868164 98.14428711 C-70.67742691 102.59507547 -74.36741868 107.11090359 -78.02734375 111.66015625 C-83.8739464 118.59503741 -83.8739464 118.59503741 -88.625 119.5 C-93.84748688 118.72629824 -96.3357877 115.64064824 -100 112 C-101.12229176 110.9035393 -102.24469604 109.80719376 -103.3671875 108.7109375 C-113.84149415 98.40013502 -113.84149415 98.40013502 -114.375 93.6875 C-114 90 -114 90 -111.875 87.0625 C-109 85 -109 85 -106.1875 84.25 C-102.11680663 85.2078102 -100.10584681 87.13003399 -97.125 89.98046875 C-94.51816612 92.45791933 -91.77747825 94.71568195 -89 97 C-82.30531096 89.3326668 -75.65014087 81.65237169 -69.2421875 73.7421875 C-66.69746317 70.62999852 -64.10381775 67.56273503 -61.5 64.5 C-58.12711398 60.53100848 -54.78823226 56.5398282 -51.5 52.5 C-47.75212202 47.8954642 -43.93016556 43.35980809 -40.0859375 38.8359375 C-36.44377036 34.54265669 -32.87620932 30.19246568 -29.32421875 25.82421875 C-26.22624158 22.05978599 -23.05783869 18.35703103 -19.89257812 14.64916992 C-16.83049424 11.04098537 -13.93831639 7.36034681 -11.21875 3.48828125 C-7.9591961 -0.49213554 -4.82906847 -0.58281861 0 0 Z " fill="#FCFEFD" transform="translate(430,316)"/>
<path d="M0 0 C0.95830215 -0.00554901 1.91660431 -0.01109802 2.90394592 -0.01681519 C6.06733415 -0.02861279 9.22929037 -0.00433433 12.39257812 0.02148438 C14.5930576 0.0231955 16.79353912 0.02312977 18.99401855 0.0213623 C23.6041211 0.02301562 28.21373743 0.04171645 32.82373047 0.07324219 C38.73207686 0.11291942 44.63978633 0.11728741 50.54824066 0.10977936 C55.09159171 0.10670934 59.63479965 0.11883139 64.17811584 0.13591003 C66.35660403 0.14293974 68.53510843 0.1460646 70.71360779 0.1452179 C73.75858859 0.14701624 76.80280728 0.16840191 79.84765625 0.1953125 C81.19749352 0.1909166 81.19749352 0.1909166 82.57460022 0.18643188 C87.32801172 0.25122539 90.59673946 0.47790231 94.42382812 3.61523438 C96.42382812 6.61523438 96.42382812 6.61523438 96.36132812 10.05273438 C95.20304498 14.45421031 94.30550384 15.30752371 90.42382812 17.61523438 C87.19984611 18.19866364 84.02535778 18.17214772 80.75585938 18.14868164 C79.78780365 18.15729721 78.81974792 18.16591278 77.82235718 18.17478943 C74.62674115 18.19746728 71.4320007 18.19070737 68.23632812 18.18164062 C66.01342508 18.18687513 63.79052426 18.19315097 61.56762695 18.20042419 C56.91053815 18.2108316 52.25375484 18.20626144 47.59667969 18.19165039 C41.62761901 18.1744564 35.65952035 18.19796445 29.69056702 18.23313999 C25.10088722 18.25509514 20.51143831 18.2536771 15.92172241 18.24537468 C13.72088567 18.24455425 11.52003212 18.25143511 9.31924438 18.26614571 C6.24282587 18.28355757 3.16814531 18.26907647 0.09179688 18.24633789 C-0.81744537 18.25803009 -1.72668762 18.26972229 -2.66348267 18.2817688 C-7.10187535 18.21499229 -9.00212579 18.04985253 -12.64135742 15.29454041 C-14.57617188 12.61523438 -14.57617188 12.61523438 -15.20117188 9.11523438 C-13.6366569 0.35395052 -7.5392314 -0.11111858 0 0 Z " fill="#B0CCDD" transform="translate(202.576171875,127.384765625)"/>
<path d="M0 0 C0.88187988 -0.00394272 1.76375977 -0.00788544 2.67236328 -0.01194763 C5.58090425 -0.01864843 8.48786782 0.01048333 11.39624023 0.04077148 C13.41975093 0.04502259 15.44326651 0.04735027 17.46678162 0.0478363 C21.70447946 0.05399921 25.94164822 0.07668854 30.17919922 0.11230469 C35.61226504 0.15760569 41.04485209 0.17233234 46.47808933 0.1760416 C50.65509262 0.18046928 54.83199535 0.19577108 59.008955 0.21491814 C61.01243195 0.22379947 63.01591962 0.2305299 65.01941109 0.23507881 C67.81781186 0.24411771 70.61577913 0.26650491 73.4140625 0.29296875 C74.24274338 0.29363342 75.07142426 0.2942981 75.92521667 0.29498291 C83.15467149 0.38937876 83.15467149 0.38937876 86.14233398 2.59936523 C88.46769462 6.08740619 88.47691296 7.50077277 88.14233398 11.59936523 C87.32841502 14.04112212 86.70517865 15.19898403 84.60972595 16.68959045 C80.93402792 18.04489087 77.28219491 17.90265915 73.4140625 17.90576172 C72.53393494 17.91408524 71.65380737 17.92240875 70.74700928 17.9309845 C67.83837458 17.95507499 64.9299641 17.96385475 62.02124023 17.97045898 C59.99869214 17.97942486 57.97614474 17.9885467 55.95359802 17.99781799 C51.71432889 18.01430713 47.47513875 18.02200818 43.23583984 18.02490234 C37.8037501 18.03029112 32.37240224 18.06799215 26.94052219 18.11364651 C22.76349676 18.1433851 18.58665084 18.15062518 14.40952873 18.15162849 C12.40683526 18.15583587 10.4041415 18.16829083 8.4015522 18.18914604 C5.60047869 18.21599866 2.80113644 18.21125382 0 18.19873047 C-0.82665665 18.21356476 -1.65331329 18.22839905 -2.50502014 18.24368286 C-6.75212734 18.18960321 -8.39211767 17.95745342 -11.87220764 15.28065491 C-13.85766602 12.59936523 -13.85766602 12.59936523 -14.48266602 9.09936523 C-12.9824913 0.69838684 -7.3178177 -0.13131767 0 0 Z " fill="#B0CCDD" transform="translate(201.857666015625,238.400634765625)"/>
<path d="M0 0 C2.875 1.4375 2.875 1.4375 5 4 C5.95728184 7.17964425 5.8375046 9.79635703 5 13 C2.21600294 17.10331648 -1.27112223 20.4668033 -4.81640625 23.90625 C-5.8325025 24.92078827 -6.84704128 25.93688858 -7.86009216 26.95446777 C-9.98250284 29.0766101 -12.11947513 31.18247149 -14.26879883 33.27734375 C-17.01608347 35.95651895 -19.72884602 38.66771118 -22.4321146 41.39121246 C-24.52176222 43.49090838 -26.6261367 45.57531147 -28.73548698 47.65519714 C-29.74131345 48.6495198 -30.74317885 49.64786666 -31.74087715 50.65034485 C-33.14007091 52.05065746 -34.56100263 53.42914586 -35.98266602 54.80664062 C-36.78430679 55.59445923 -37.58594757 56.38227783 -38.41188049 57.19396973 C-41.64417741 59.44951707 -44.09495776 59.81034664 -48 60 C-50.22265625 58.77734375 -50.22265625 58.77734375 -52.0625 56.9375 C-52.72378906 56.28523438 -53.38507813 55.63296875 -54.06640625 54.9609375 C-54.70449219 54.31382812 -55.34257813 53.66671875 -56 53 C-56.60714844 52.49726563 -57.21429688 51.99453125 -57.83984375 51.4765625 C-60.05004896 49.59398771 -61.76117116 47.86940572 -62.54296875 45.0234375 C-62.81004778 41.16883742 -62.09049422 39.12775654 -59.875 36 C-57 34 -57 34 -54.0625 33.4375 C-50.30668772 34.12734307 -48.10120175 35.83045274 -45 38 C-44.5409024 37.53868179 -44.08180481 37.07736359 -43.60879517 36.60206604 C-38.84278728 31.81398546 -34.07330322 27.02938826 -29.30175781 22.24682617 C-27.51993287 20.45996323 -25.73900522 18.67220506 -23.95898438 16.88354492 C-21.40468278 14.31715448 -18.84720299 11.75396943 -16.2890625 9.19140625 C-15.49005524 8.3872377 -14.69104797 7.58306915 -13.86782837 6.75453186 C-12.75690323 5.64349342 -12.75690323 5.64349342 -11.62353516 4.51000977 C-10.97067535 3.85492935 -10.31781555 3.19984894 -9.64517212 2.5249176 C-6.55009693 -0.34392182 -4.13855864 -0.40574104 0 0 Z " fill="#60C77E" transform="translate(165,111)"/>
<path d="M0 0 C2.875 1.5 2.875 1.5 5 4 C5.67705845 7.38529224 5.91366226 8.81504267 5 12 C3.70930481 13.84657288 3.70930481 13.84657288 2.01098633 15.69946289 C1.3752066 16.39500275 0.73942688 17.0905426 0.0843811 17.80715942 C-3.53247611 21.61221756 -7.20891494 25.35126571 -10.92578125 29.05859375 C-12.16898384 30.30323143 -12.16898384 30.30323143 -13.43730164 31.57301331 C-15.17482795 33.31121573 -16.91360011 35.04817362 -18.65356445 36.78393555 C-21.32554818 39.45052182 -23.99210056 42.12245688 -26.65820312 44.79492188 C-28.35124159 46.48730026 -30.04458985 48.17936881 -31.73828125 49.87109375 C-32.53720291 50.67203964 -33.33612457 51.47298553 -34.15925598 52.29820251 C-34.89729965 53.03309402 -35.63534332 53.76798553 -36.39575195 54.52514648 C-37.04526321 55.17386215 -37.69477448 55.82257782 -38.3639679 56.49095154 C-41.10187417 59.01635018 -43.82167056 59.74405945 -47.5625 59.7578125 C-53.11504846 58.03153942 -57.30727067 52.32224557 -61 48 C-62.56935594 44.86128812 -62.35201103 42.46144178 -62 39 C-59.5748989 35.64765436 -58.1549168 34.22115428 -54.0625 33.4375 C-50.30668772 34.12734307 -48.10120175 35.83045274 -45 38 C-44.5409024 37.53868179 -44.08180481 37.07736359 -43.60879517 36.60206604 C-38.84278728 31.81398546 -34.07330322 27.02938826 -29.30175781 22.24682617 C-27.51993287 20.45996323 -25.73900522 18.67220506 -23.95898438 16.88354492 C-21.40468278 14.31715448 -18.84720299 11.75396943 -16.2890625 9.19140625 C-15.49005524 8.3872377 -14.69104797 7.58306915 -13.86782837 6.75453186 C-12.75690323 5.64349342 -12.75690323 5.64349342 -11.62353516 4.51000977 C-10.97067535 3.85492935 -10.31781555 3.19984894 -9.64517212 2.5249176 C-6.55009693 -0.34392182 -4.13855864 -0.40574104 0 0 Z " fill="#60C77E" transform="translate(165,333)"/>
<path d="M0 0 C2 1.0625 2 1.0625 3 3 C3.6725764 6.96820077 4.05965906 9.47297885 1.72055054 12.84375 C1.15840851 13.4521875 0.59626648 14.060625 0.01708984 14.6875 C-0.61996887 15.38254639 -1.25702759 16.07759277 -1.91339111 16.79370117 C-2.60197205 17.52177979 -3.29055298 18.2498584 -4 19 C-4.68487488 19.73001221 -5.36974976 20.46002441 -6.07537842 21.2121582 C-10.88686834 26.29041599 -15.78912485 31.28049937 -20.69628906 36.26611328 C-22.4875241 38.09424397 -24.2697387 39.9312553 -26.04296875 41.77685547 C-28.6192858 44.45639644 -31.22376447 47.10545909 -33.8359375 49.75 C-34.62060394 50.57798096 -35.40527039 51.40596191 -36.2137146 52.2590332 C-39.91089409 55.94377751 -42.48500049 58.49724708 -47.86962891 58.66162109 C-51.81137218 58.40059283 -53.96924601 57.01260012 -56.65234375 54.1875 C-57.31943359 53.4140625 -57.31943359 53.4140625 -58 52.625 C-58.71349609 51.86316406 -58.71349609 51.86316406 -59.44140625 51.0859375 C-62.40997725 47.87209995 -63.87906405 46.06826755 -64.375 41.6875 C-64 38 -64 38 -61.875 35.0625 C-59 33 -59 33 -56.0625 32.4375 C-52.30668772 33.12734307 -50.10120175 34.83045274 -47 37 C-46.5409024 36.53868179 -46.08180481 36.07736359 -45.60879517 35.60206604 C-40.84278728 30.81398546 -36.07330322 26.02938826 -31.30175781 21.24682617 C-29.51993287 19.45996323 -27.73900522 17.67220506 -25.95898438 15.88354492 C-23.40468278 13.31715448 -20.84720299 10.75396943 -18.2890625 8.19140625 C-17.49005524 7.3872377 -16.69104797 6.58306915 -15.86782837 5.75453186 C-14.75690323 4.64349342 -14.75690323 4.64349342 -13.62353516 3.51000977 C-12.97067535 2.85492935 -12.31781555 2.19984894 -11.64517212 1.5249176 C-8.03767131 -1.81889148 -4.51930278 -1.00737015 0 0 Z " fill="#60C77E" transform="translate(167,223)"/>
<path d="M0 0 C0.65740173 -0.0071553 1.31480347 -0.01431061 1.99212646 -0.02168274 C4.15952612 -0.03855581 6.32485292 -0.01917969 8.4921875 0.00219727 C10.00146658 0.00136842 11.51074558 -0.00109157 13.02001953 -0.00511169 C16.18094094 -0.00796869 19.34115337 0.00672049 22.50195312 0.03417969 C26.55090889 0.06826352 30.59859708 0.06224402 34.64761353 0.04351711 C37.76353494 0.03294149 40.87916209 0.0418898 43.99505615 0.05690193 C45.48776373 0.06208016 46.98050209 0.06160627 48.47320557 0.05535698 C50.56093263 0.04989747 52.64685384 0.07029827 54.734375 0.09765625 C56.51497314 0.10695412 56.51497314 0.10695412 58.33154297 0.11643982 C61.96335906 0.73217854 63.14123641 1.75467865 65.3671875 4.63110352 C66.09489983 7.37072639 65.94690327 9.86324491 65.3671875 12.63110352 C63.49703656 15.06229974 62.08580405 16.27179524 59.3671875 17.63110352 C57.36729859 17.74813928 55.3635287 17.80085782 53.36035156 17.82397461 C52.09854065 17.84003754 50.83672974 17.85610046 49.53668213 17.87265015 C48.15206577 17.88413833 46.76744188 17.89474675 45.3828125 17.90454102 C44.68605156 17.90986469 43.98929062 17.91518837 43.27141571 17.92067337 C39.58167115 17.94740303 35.89196035 17.96677628 32.20214844 17.98120117 C29.15236336 17.99452895 26.10324923 18.02235828 23.05371094 18.06323242 C19.36845117 18.11262637 15.68379899 18.13733047 11.99822235 18.14442825 C10.59640625 18.15112967 9.19460311 18.16632318 7.79297638 18.19031906 C-4.54363244 18.38942912 -4.54363244 18.38942912 -8.50097656 15.31713867 C-10.6328125 12.63110352 -10.6328125 12.63110352 -11.2578125 9.13110352 C-10.00939403 2.1399601 -6.90245237 0.00559237 0 0 Z " fill="#B1CCDD" transform="translate(198.6328125,170.368896484375)"/>
<path d="M0 0 C1.51176819 -0.01891296 1.51176819 -0.01891296 3.05407715 -0.03820801 C4.13644653 -0.03011108 5.21881592 -0.02201416 6.33398438 -0.01367188 C7.45083618 -0.01749878 8.56768799 -0.02132568 9.71838379 -0.02526855 C12.07870383 -0.02798943 14.43905394 -0.02061607 16.79931641 -0.00390625 C20.41442012 0.01749929 24.0275363 -0.00370366 27.64257812 -0.02929688 C29.93555127 -0.02665363 32.22852317 -0.02152873 34.52148438 -0.01367188 C35.60385376 -0.0217688 36.68622314 -0.02986572 37.8013916 -0.03820801 C38.80923706 -0.02559937 39.81708252 -0.01299072 40.85546875 0 C42.18306213 0.00477356 42.18306213 0.00477356 43.53747559 0.00964355 C46.69569272 0.68077074 47.90907126 2.05609852 49.92773438 4.51757812 C50.6554467 7.257201 50.50745014 9.74971951 49.92773438 12.51757812 C48.05758343 14.94877435 46.64635092 16.15826985 43.92773438 17.51757812 C42.44868553 17.63228368 40.96474957 17.68696862 39.48144531 17.71044922 C38.55998718 17.72651215 37.63852905 17.74257507 36.68914795 17.75912476 C32.4680656 17.80359528 28.24714083 17.84464958 24.02587891 17.86767578 C21.80083754 17.88422487 19.5758491 17.91150086 17.35107422 17.94970703 C14.1419722 18.00453495 10.93411702 18.02636048 7.72460938 18.04101562 C6.73378357 18.063685 5.74295776 18.08635437 4.72210693 18.10971069 C0.17016748 18.09582176 -3.0633085 18.03686719 -6.70166016 15.1159668 C-9.07226562 12.51757812 -9.07226562 12.51757812 -9.79882812 10.41992188 C-9.62753049 7.10597145 -9.41098743 4.95301584 -7.35021973 2.30383301 C-4.64546078 0.18289964 -3.3977213 0.01221701 0 0 Z " fill="#B1CDDD" transform="translate(197.072265625,281.482421875)"/>
<path d="M0 0 C1.10927856 -0.00574036 1.10927856 -0.00574036 2.2409668 -0.01159668 C3.8009579 -0.01431271 5.36099478 -0.00697292 6.92089844 0.00976562 C9.30507186 0.03118327 11.68623249 0.00995737 14.0703125 -0.015625 C15.5885483 -0.01298166 17.10678223 -0.00785656 18.625 0 C19.33551514 -0.00809692 20.04603027 -0.01619385 20.77807617 -0.02453613 C24.13310222 0.03883883 26.01730368 0.31516629 28.75390625 2.31835938 C30.6204562 4.96848606 30.87328007 7.22634139 31.0390625 10.43359375 C30.11608255 13.09832618 28.7939766 14.79623924 26.56396484 16.5168457 C21.81134826 18.65815148 16.49781073 18.26277384 11.37207031 18.18310547 C9.3164846 18.15630196 7.26635567 18.18289679 5.2109375 18.21484375 C-5.80867955 18.16050639 -5.80867955 18.16050639 -9.5859375 15.24609375 C-12.47022436 11.52010979 -12.47022436 11.52010979 -12.3125 8.46875 C-11.108102 0.88104258 -7.03243623 -0.08014059 0 0 Z " fill="#B2CDDD" transform="translate(199.6875,392.46875)"/>
<path d="M0 0 C1.03253906 -0.01095703 2.06507813 -0.02191406 3.12890625 -0.03320312 C7.67463338 0.01078778 10.66615418 0.08099796 14.65234375 2.3828125 C17.2588661 5.45773739 17.5701897 7.56168732 17.5 11.5625 C15.41374661 14.98991629 14.3255689 16.28731037 10.5 17.5625 C6.8802246 17.86860389 3.25619167 17.88609317 -0.375 17.9375 C-1.36886719 17.97488281 -2.36273438 18.01226562 -3.38671875 18.05078125 C-10.71046195 18.13901912 -10.71046195 18.13901912 -14.65625 15.2578125 C-17.096958 11.68982835 -17.25707251 9.80210606 -16.5 5.5625 C-12.19064385 -0.79056368 -7.00338299 -0.16175104 0 0 Z " fill="#B1CCDD" transform="translate(204.5,349.4375)"/>
</svg>
